<svg preserveAspectRatio="none" overflow="visible" style="display: block;" width="44.4892" height="44.4892" viewBox="0 0 44.4892 44.4892" fill="none" xmlns="http://www.w3.org/2000/svg">
<g id="mynaui:chat-messages">
<path id="Vector" d="M22.244 35.2181C21.3817 36.3702 20.2624 37.3053 18.9751 37.9489C17.6879 38.5925 16.2683 38.9269 14.8291 38.9255C13.7375 38.9263 12.6544 38.7343 11.6296 38.3582C10.0243 37.7688 8.46161 38.1358 6.88966 38.5659C6.74659 38.6082 6.59502 38.6129 6.44959 38.5796C6.30416 38.5462 6.1698 38.4759 6.05947 38.3755C5.94914 38.275 5.86659 38.1478 5.81978 38.0061C5.77297 37.8645 5.7635 37.7131 5.79226 37.5667C6.11666 35.8539 6.47999 34.0372 5.97578 32.406C5.69994 31.5157 5.55995 30.5889 5.56055 29.6569C5.56055 28.218 5.89556 26.7989 6.53906 25.5119C7.18256 24.2249 8.11686 23.1054 9.26798 22.242C11.0529 20.9034 13.2607 20.2535 15.4862 20.4116C17.7116 20.5698 19.8054 21.5254 21.383 23.103C22.9606 24.6806 23.9162 26.7744 24.0744 28.9999C24.2326 31.2253 23.5826 33.4332 22.244 35.2181ZM9.26798 22.242C9.26798 13.5574 14.5974 5.55859 24.0977 5.55859C26.4759 5.55818 28.8194 6.12975 30.9304 7.22508C33.0414 8.32041 34.8579 9.90738 36.2269 11.8521C37.5958 13.7968 38.477 16.0423 38.796 18.399C39.115 20.7558 38.8626 23.1547 38.0599 25.3934C37.1775 27.8514 38.1285 31.1436 38.6846 33.8611C38.717 34.0058 38.7104 34.1565 38.6653 34.2978C38.6203 34.4391 38.5385 34.5658 38.4283 34.6651C38.3181 34.7643 38.1835 34.8324 38.0383 34.8625C37.8931 34.8926 37.7426 34.8835 37.602 34.8362C35.17 34.0762 32.3152 33.0084 30.0296 33.9724C27.5567 35.0141 24.9578 35.2181 22.244 35.2181" stroke="white" stroke-width="2.78057" stroke-linecap="round" stroke-linejoin="round"/>
</g>
</svg>
