<svg preserveAspectRatio="none" overflow="visible" style="display: block;" width="13.8144" height="10.3608" viewBox="0 0 13.8144 10.3608" fill="none" xmlns="http://www.w3.org/2000/svg">
<path id="Vector" d="M4.72449 8.09942L12.2957 0.276903C12.4744 0.0923012 12.6828 0 12.921 0C13.1593 0 13.3677 0.0923012 13.5464 0.276903C13.7251 0.461506 13.8144 0.680874 13.8144 0.93501C13.8144 1.18915 13.7251 1.40821 13.5464 1.59219L5.34984 10.0839C5.17116 10.2685 4.96271 10.3608 4.72449 10.3608C4.48626 10.3608 4.27781 10.2685 4.09914 10.0839L0.257699 6.11495C0.0790279 5.93034 -0.00673454 5.71128 0.000412318 5.45776C0.00755918 5.20424 0.100766 4.98487 0.280033 4.79966C0.4593 4.61444 0.671621 4.52214 0.916997 4.52275C1.16237 4.52337 1.3744 4.61567 1.55307 4.79966L4.72449 8.09942Z" fill="#FF6306"/>
</svg>
